<svg width="280" height="85" viewBox="0 0 280 85" fill="none" xmlns="http://www.w3.org/2000/svg">
<path d="M89.558 28L50.946 2.95867C49.5132 2.09856 47.8735 1.6442 46.2023 1.6442C44.5312 1.6442 42.8915 2.09856 41.4587 2.95867L3.96199 27.2673C3.1213 27.7533 2.42142 28.4495 1.93103 29.2876C1.44064 30.1257 1.17661 31.0769 1.16484 32.0478C1.15307 33.0188 1.39398 33.9761 1.86391 34.8258C2.33385 35.6756 3.01666 36.3885 3.84532 36.8947L41.4307 62.5333C42.8489 63.4337 44.4897 63.9215 46.1694 63.9421C47.8492 63.9627 49.5015 63.5153 50.9413 62.65L89.558 37.6133C90.4034 37.1281 91.1059 36.4284 91.5943 35.5849C92.0828 34.7413 92.34 33.7838 92.34 32.809C92.34 31.8342 92.0828 30.8767 91.5943 30.0332C91.1059 29.1896 90.4034 28.4899 89.558 28.0047V28ZM47.0913 56.6767C46.8334 56.7871 46.5551 56.8421 46.2745 56.8381C45.9939 56.8341 45.7173 56.7711 45.4627 56.6533L9.52933 32.158L45.3273 8.92734C45.6032 8.8095 45.9 8.74874 46.2 8.74874C46.5 8.74874 46.7968 8.8095 47.0727 8.92734L83.8973 32.7973L47.0913 56.6767Z" fill="white"/>
<path d="M41.4587 22.316L21.1307 35.4947L27.4867 39.8487L45.3273 28.2847C45.6032 28.1668 45.9 28.1061 46.2 28.1061C46.5 28.1061 46.7968 28.1668 47.0727 28.2847L65.4453 40.194L71.9787 35.966L50.946 22.316C49.5127 21.4574 47.8732 21.0038 46.2023 21.0038C44.5315 21.0038 42.892 21.4574 41.4587 22.316Z" fill="white"/>
<path d="M89.558 47.348L85.5353 44.7393L79.002 48.9673L83.9113 52.1547L47.0867 76.0247C46.8298 76.1366 46.5525 76.1943 46.2723 76.1943C45.9921 76.1943 45.7149 76.1366 45.458 76.0247L9.52466 51.5247L14.1913 48.5053L7.81199 44.1327L3.96199 46.6247C3.1213 47.1106 2.42142 47.8068 1.93103 48.6449C1.44064 49.483 1.17661 50.4342 1.16484 51.4051C1.15307 52.3761 1.39398 53.3334 1.86391 54.1832C2.33385 55.0329 3.01666 55.7458 3.84532 56.252L41.4307 81.8813C42.8487 82.7825 44.49 83.2704 46.1701 83.2902C47.8501 83.31 49.5024 82.8609 50.9413 81.9933L89.5533 56.9567C90.3988 56.4715 91.1012 55.7717 91.5897 54.9282C92.0781 54.0846 92.3354 53.1271 92.3354 52.1523C92.3354 51.1775 92.0781 50.22 91.5897 49.3765C91.1012 48.5329 90.3988 47.8332 89.5533 47.348H89.558Z" fill="white"/>
<path d="M137.009 33.0027C134.859 29.5804 131.651 27.8693 127.386 27.8693C125.358 27.8354 123.348 28.2528 121.501 29.0914C119.655 29.93 118.018 31.1687 116.709 32.718C113.806 36.05 112.355 40.3884 112.355 45.7333C112.355 51.0782 113.876 55.4804 116.919 58.94C118.261 60.53 119.939 61.8026 121.832 62.6661C123.725 63.5295 125.786 63.9623 127.867 63.9333C132.222 63.9333 135.455 61.8504 137.564 57.6847L138.544 62.9533H145.357V14.742H137.009V33.0027ZM137.009 47.824C137.042 48.9678 136.84 50.1063 136.417 51.1696C135.995 52.2329 135.359 53.1985 134.549 54.0073C133.806 54.8041 132.898 55.4297 131.888 55.8409C130.879 56.2522 129.793 56.4392 128.704 56.389C127.615 56.3389 126.55 56.0528 125.583 55.5505C124.616 55.0482 123.769 54.3417 123.102 53.48C121.509 51.5387 120.713 48.9751 120.713 45.7893C120.713 42.6036 121.49 40.0633 123.046 38.1687C123.736 37.2722 124.626 36.5484 125.644 36.0544C126.662 35.5604 127.781 35.3096 128.912 35.322C131.255 35.322 133.121 36.0236 134.512 37.4267C136.093 39.0146 136.99 41.159 137.009 43.4V47.824Z" fill="white"/>
<path d="M172.13 27.874C167.638 27.874 164.215 30.0284 161.863 34.3373V14.7373H153.589V62.93H161.877V47.1333C161.971 43.1978 162.801 40.2422 164.369 38.2667C165.937 36.2911 167.823 35.308 170.025 35.3173C172.225 35.3173 173.936 35.9613 175.159 37.2493C176.381 38.5373 176.99 40.446 176.983 42.9753V62.9253H185.267V42.98C185.267 38.4347 184.201 34.7807 182.07 32.018C179.939 29.2553 176.626 27.874 172.13 27.874Z" fill="white"/>
<path d="M201.493 28.7187H193.205V62.93H201.493V28.7187Z" fill="white"/>
<path d="M197.349 12.9127C195.712 12.9127 194.448 13.3467 193.555 14.2147C193.1 14.6821 192.747 15.2384 192.517 15.8487C192.288 16.459 192.186 17.1101 192.22 17.7613C192.186 18.4126 192.287 19.0639 192.516 19.6743C192.746 20.2846 193.1 20.8409 193.555 21.308C194.446 22.176 195.711 22.6053 197.349 22.6053C198.987 22.6053 200.195 22.176 201.105 21.308C201.57 20.8463 201.933 20.2918 202.169 19.6808C202.405 19.0697 202.51 18.4157 202.477 17.7613C202.51 17.107 202.405 16.453 202.169 15.8419C201.933 15.2308 201.57 14.6764 201.105 14.2147C200.2 13.3467 198.94 12.9127 197.349 12.9127Z" fill="white"/>
<path d="M230.715 44.5947L222.637 41.5753C219.875 40.7758 218.493 39.5578 218.493 37.9213C218.493 36.988 218.997 36.1558 220.005 35.4247C221.009 34.7013 222.427 34.3373 224.252 34.3373C226.077 34.3373 227.486 34.6687 228.452 35.322C228.912 35.6085 229.298 35.9995 229.579 36.4634C229.859 36.9272 230.027 37.4507 230.067 37.9913H237.865C237.831 36.5854 237.482 35.205 236.843 33.9521C236.204 32.6993 235.292 31.6061 234.173 30.7533C231.809 28.8338 228.438 27.874 224.061 27.874C219.683 27.874 216.194 28.7529 213.593 30.5107C210.992 32.2653 209.692 34.5987 209.692 37.5107C209.692 41.8662 212.455 45.0038 217.98 46.9233L225.447 49.588C226.63 49.9079 227.748 50.4323 228.751 51.1373C229.101 51.425 229.379 51.7913 229.561 52.2064C229.744 52.6216 229.826 53.0739 229.801 53.5267C229.801 54.5533 229.227 55.4587 228.083 56.2287C226.769 57.0474 225.239 57.4508 223.692 57.386C219.06 57.386 216.694 55.7713 216.594 52.542H208.871C208.917 56.1509 210.317 58.9509 213.071 60.942C215.824 62.9331 219.481 63.9302 224.042 63.9333C228.584 63.9333 232.237 62.8569 234.999 60.704C237.669 58.6413 239.003 56.2069 239.003 53.4007C239.041 52.4047 238.87 51.4119 238.501 50.4861C238.132 49.5602 237.574 48.7218 236.861 48.0247C235.443 46.6278 233.394 45.4844 230.715 44.5947Z" fill="white"/>
<path d="M253.895 55.342V53.6667C253.882 53.094 253.992 52.5252 254.217 51.9982C254.441 51.4712 254.775 50.998 255.197 50.61C256.06 49.7933 257.479 49.1213 259.448 48.608L266.821 46.7787C270.94 45.7458 273.933 44.2805 275.8 42.3827C277.667 40.4849 278.592 37.8031 278.577 34.3373C278.577 30.8747 277.149 27.972 274.293 25.6293C271.337 23.1933 267.566 21.9753 262.981 21.9753C258.068 21.9753 254.134 23.0285 251.179 25.1347C248.074 27.384 246.481 30.6165 246.4 34.832H255.603C256.069 31.0987 258.669 29.232 263.401 29.232C265.554 29.232 267.238 29.7469 268.455 30.7767C269.034 31.2393 269.501 31.8284 269.818 32.499C270.135 33.1695 270.294 33.9037 270.284 34.6453C270.301 35.3685 270.169 36.0874 269.897 36.7576C269.625 37.4278 269.218 38.0351 268.702 38.542C267.647 39.5967 265.832 40.4507 263.256 41.104L256.569 42.7C252.77 43.6333 250.006 45.0847 248.276 47.054C246.5 49.1602 245.61 52.1562 245.607 56.042V62.93H278.833V55.342H253.895Z" fill="white"/>
</svg>
